# xmcd
#
# Track frame offsets:
#	150
#	21318
#	35359
#	51143
#	66948
#	79697
#	96799
#	109035
#	123732
#	137528
#	151837
#	166475
#	183437
#	197284
#	213377
#	227765
#	241177
#
# Disc length: 3396 seconds
#
# Revision: 1
# Processed by: cddbd v1.5.2PL0 Copyright (c) Steve Scherf et al.
# Submitted via: audiograbber 1.82.02
#
DISCID=dd0d4211
DTITLE=Various Artist  - Country Radio - December 2017
DYEAR=2017
DGENRE=Country
TTITLE0=Tony Young - Grass Ain't Always Greener, The
TTITLE1=James Barker Band - Chills
TTITLE2=Chris Lane (Ft. Tori Kelly) - Take Back Home Girl
TTITLE3=Morgan Evans - Kiss Somebody
TTITLE4=Drew Baldridge - Guns and Roses
TTITLE5=David Lee Murphy (Ft. Kenny Chesney) - Everything's Gonna Be Alright
TTITLE6=Bebe Rexha (Ft. Florida Georgia Line) - Meant To Be
TTITLE7=Jon Pardi - She Ain't In It
TTITLE8=Dustin Lynch - I'd Be Jealous Too
TTITLE9=Kelsea Ballerini - Miss Me More
TTITLE10=Morgan Wallen (Ft. Florida Georgia Line) - Up Down
TTITLE11=Stephanie Quayle - Selfish
TTITLE12=Craig Wayne Boyd - Stuck In My Head
TTITLE13=Tyminski - Bloodline
TTITLE14=Keith Urban - Female
TTITLE15=Jerrod Niemann - I Got This
TTITLE16=Denny Strickland - We Don't Sleep
EXTD=
EXTT0=
EXTT1=
EXTT2=
EXTT3=
EXTT4=
EXTT5=
EXTT6=
EXTT7=
EXTT8=
EXTT9=
EXTT10=
EXTT11=
EXTT12=
EXTT13=
EXTT14=
EXTT15=
EXTT16=
PLAYORDER=
